<svg width="231" height="41" viewBox="0 0 231 41" fill="none" xmlns="http://www.w3.org/2000/svg">
<g clip-path="url(#clip0_930_706)">
<g clip-path="url(#clip1_930_706)">
<path d="M67.355 9.18066L76.8541 28.3984H72.4664L70.2334 23.7209H60.6724L58.5947 28.3984H54.2373L63.1062 9.18066H67.355ZM61.9354 20.9011H68.8819L65.2483 13.2939L61.9354 20.9011Z" fill="white"/>
<path d="M94.168 28.3986L89.6806 20.9053H88.8924L84.3784 28.3986H80.0273L85.6831 18.9887L80.0273 9.60767H84.3784L88.8924 17.0696H89.6806L94.168 9.60767H98.5153L92.8596 18.9887L98.5153 28.3986H94.168Z" fill="white"/>
<path d="M103.168 28.3986V9.60767H106.866V28.3986H103.168Z" fill="white"/>
<path d="M117.607 28.3984C116.878 28.4001 116.156 28.2526 115.482 27.9641C114.808 27.6757 114.196 27.2522 113.68 26.7178C113.165 26.1834 112.756 25.5487 112.478 24.8502C112.2 24.1517 112.058 23.4031 112.06 22.6475V15.327C112.061 14.5737 112.206 13.8281 112.485 13.1329C112.765 12.4376 113.174 11.8063 113.689 11.2751C114.204 10.7438 114.815 10.3231 115.488 10.037C116.16 9.75083 116.88 9.60487 117.607 9.60746H125.003C125.73 9.60487 126.45 9.75083 127.122 10.037C127.794 10.3231 128.405 10.7438 128.921 11.2751C129.436 11.8063 129.845 12.4376 130.125 13.1329C130.404 13.8281 130.549 14.5737 130.55 15.327V22.658C130.551 23.4133 130.409 24.1614 130.131 24.8595C129.852 25.5575 129.444 26.1917 128.928 26.7257C128.413 27.2597 127.801 27.6829 127.127 27.9711C126.454 28.2592 125.732 28.4067 125.003 28.405L117.607 28.3984ZM126.852 22.6514V15.327C126.852 14.8188 126.657 14.3315 126.31 13.9721C125.963 13.6128 125.493 13.4108 125.003 13.4104H117.607C117.118 13.4155 116.65 13.6191 116.305 13.9774C115.959 14.3357 115.763 14.8202 115.758 15.327V22.658C115.758 23.166 115.953 23.6532 116.3 24.0123C116.646 24.3715 117.117 24.5732 117.607 24.5732H125.003C125.247 24.5755 125.489 24.5272 125.715 24.4311C125.941 24.335 126.146 24.1931 126.318 24.0137C126.491 23.8343 126.627 23.621 126.718 23.3864C126.81 23.1518 126.855 22.9006 126.852 22.6475V22.6514Z" fill="white"/>
<path d="M150.537 28.3986V18.8199L144.994 24.5669L139.436 18.8199V28.3986H135.738V9.60767L144.984 19.1642L154.23 9.61421V28.3986H150.537Z" fill="white"/>
<path d="M39.7938 41L24.6704 15.7983L14.5246 32.64H24.0137L18.973 41H0L24.6704 0L49.2828 41H39.7938Z" fill="#268F44"/>
<path d="M39.7942 41C34.754 27.3329 29.7128 13.6662 24.6709 0L49.2832 41H39.7942Z" fill="#1B7D39"/>
<path d="M24.6704 15.7983L14.5246 32.64H24.0137L18.973 41H0L24.6704 0V15.7983Z" fill="#5DBA64"/>
<path d="M24.6702 15.7983L14.5244 32.64C17.9093 21.7605 21.2912 10.8804 24.6702 0V15.7983Z" fill="#3FB450"/>
<path d="M24.6704 15.7983L14.5246 32.64H24.0137L18.973 41H0L24.6704 15.7983Z" fill="#EE6B1F"/>
<path d="M14.5246 32.6401H24.0137L0 41.0001L14.5246 32.6401Z" fill="#C55917"/>
<path d="M24.0187 32.6401L18.978 41.0001H0L24.0187 32.6401Z" fill="#F27D56"/>
<path d="M166.177 0.78418V40.2159" stroke="white" stroke-miterlimit="10"/>
<path d="M176.743 16.3205V8.70546H179.965C180.686 8.69117 181.4 8.85354 182.049 9.17936C182.633 9.47453 183.122 9.93705 183.46 10.512C183.805 11.1174 183.98 11.8107 183.965 12.5137C183.98 13.2162 183.805 13.909 183.46 14.514C183.122 15.089 182.633 15.5515 182.049 15.8467C181.4 16.1725 180.686 16.3348 179.965 16.3205H176.743ZM178.108 15.124H179.877C180.373 15.1373 180.864 15.025 181.309 14.7967C181.701 14.5892 182.028 14.2716 182.254 13.8804C182.487 13.4646 182.605 12.9904 182.595 12.5097C182.608 12.025 182.49 11.5461 182.254 11.1273C182.025 10.7424 181.698 10.4303 181.309 10.2253C180.864 9.99707 180.373 9.88473 179.877 9.89806H178.108V15.124Z" fill="white"/>
<path d="M186.588 16.3207L189.893 8.70557H191.237L194.554 16.3207H193.115L190.282 9.45699H190.828L187.984 16.3207H186.588ZM188.104 14.5586L188.482 13.4485H192.439L192.806 14.5586H188.104Z" fill="white"/>
<path d="M198.924 16.3207V9.90602H196.489V8.70557H202.722V9.90209H200.288V16.3167L198.924 16.3207Z" fill="white"/>
<path d="M204.67 16.3207L207.975 8.70557H209.319L212.634 16.3207H211.197L208.363 9.45699H208.91L206.066 16.3207H204.67ZM206.186 14.5586L206.564 13.4485H210.52L210.888 14.5586H206.186Z" fill="white"/>
<path d="M180.144 29.4825C179.61 29.4883 179.079 29.3902 178.58 29.1932C178.12 29.0108 177.7 28.7343 177.345 28.3804C176.99 28.0264 176.708 27.6021 176.514 27.1327C176.122 26.1281 176.122 25.0046 176.514 24C176.706 23.5329 176.988 23.1112 177.343 22.7603C177.702 22.4028 178.127 22.1233 178.592 21.9382C179.63 21.5432 180.772 21.5548 181.802 21.9709C182.291 22.1775 182.725 22.5041 183.065 22.9226L182.181 23.7827C181.927 23.499 181.62 23.2714 181.279 23.1137C180.945 22.9634 180.584 22.8872 180.22 22.8899C179.859 22.8852 179.501 22.9519 179.165 23.0862C178.855 23.211 178.573 23.3999 178.335 23.6413C178.099 23.8831 177.912 24.1715 177.785 24.4896C177.519 25.1809 177.519 25.9517 177.785 26.6431C177.913 26.961 178.101 27.2494 178.338 27.4914C178.575 27.7328 178.857 27.9217 179.168 28.0465C179.504 28.1798 179.862 28.2459 180.222 28.2415C180.587 28.2447 180.947 28.1689 181.282 28.019C181.625 27.8596 181.932 27.6283 182.184 27.3395L183.068 28.1983C182.727 28.6176 182.294 28.9458 181.805 29.1553C181.278 29.3799 180.713 29.4912 180.144 29.4825Z" fill="white"/>
<path d="M188.062 28.176H192.208V29.3739H186.698V21.7588H192.061V22.9553H188.062V28.176ZM187.957 24.9242H191.599V26.088H187.946L187.957 24.9242Z" fill="white"/>
<path d="M196.044 29.3739V21.7588H197.167L201.773 27.6328H201.217V21.7588H202.56V29.3739H201.437L196.841 23.4999H197.397V29.3739H196.044Z" fill="white"/>
<path d="M208.353 29.3739V22.9592H205.918V21.7627H212.152V22.9592H209.717V29.3739H208.353Z" fill="white"/>
<path d="M216.859 28.176H221.006V29.3739H215.495V21.7588H220.858V22.9553H216.859V28.176ZM216.754 24.9242H220.407V26.088H216.758L216.754 24.9242Z" fill="white"/>
<path d="M224.851 29.3738V21.7587H227.873C228.446 21.7437 229.016 21.8529 229.546 22.0794C229.986 22.2723 230.361 22.5963 230.623 23.0102C230.883 23.4473 231.015 23.9537 231.001 24.4672C231.022 24.9672 230.894 25.4617 230.634 25.8834C230.373 26.305 229.994 26.6333 229.548 26.8236C229.019 27.0543 228.448 27.1658 227.874 27.1509H225.617L226.216 26.5199V29.3698L224.851 29.3738ZM226.215 26.6757L225.616 25.9897H227.81C228.411 25.9897 228.864 25.8558 229.169 25.5878C229.322 25.4491 229.442 25.2761 229.521 25.0819C229.6 24.8878 229.636 24.6776 229.625 24.4672C229.636 24.2578 229.601 24.0485 229.522 23.8553C229.443 23.6622 229.322 23.4904 229.169 23.3532C228.864 23.0914 228.411 22.9604 227.81 22.9604H225.616L226.215 22.264V26.6757ZM229.656 29.3738L227.8 26.6102H229.257L231.132 29.3738H229.656Z" fill="white"/>
</g>
</g>
<defs>
<clipPath id="clip0_930_706">
<rect width="231" height="41" fill="white"/>
</clipPath>
<clipPath id="clip1_930_706">
<rect width="231.125" height="41" fill="white"/>
</clipPath>
</defs>
</svg>
