<svg width="46" height="46" viewBox="0 0 46 46" fill="none" xmlns="http://www.w3.org/2000/svg">
<rect width="46" height="46" rx="10" fill="#01C213"/>
<path d="M18.5 23H18.51M23 23H23.01M27.5 23H27.51M23 32C27.9706 32 32 27.9706 32 23C32 18.0294 27.9706 14 23 14C18.0294 14 14 18.0294 14 23C14 24.1971 14.2337 25.3397 14.6581 26.3845C14.7393 26.5845 14.7799 26.6845 14.798 26.7653C14.8157 26.8443 14.8222 26.9028 14.8222 26.9839C14.8222 27.0667 14.8072 27.1569 14.7771 27.3374L14.1841 30.8952C14.122 31.2678 14.091 31.4541 14.1488 31.5888C14.1993 31.7067 14.2933 31.8007 14.4112 31.8512C14.5459 31.909 14.7322 31.878 15.1048 31.8159L18.6627 31.2229C18.8431 31.1928 18.9333 31.1778 19.0161 31.1778C19.0972 31.1778 19.1557 31.1843 19.2347 31.202C19.3155 31.2201 19.4155 31.2607 19.6155 31.3419C20.6603 31.7663 21.8029 32 23 32ZM19 23C19 23.2761 18.7761 23.5 18.5 23.5C18.2239 23.5 18 23.2761 18 23C18 22.7239 18.2239 22.5 18.5 22.5C18.7761 22.5 19 22.7239 19 23ZM23.5 23C23.5 23.2761 23.2761 23.5 23 23.5C22.7239 23.5 22.5 23.2761 22.5 23C22.5 22.7239 22.7239 22.5 23 22.5C23.2761 22.5 23.5 22.7239 23.5 23ZM28 23C28 23.2761 27.7761 23.5 27.5 23.5C27.2239 23.5 27 23.2761 27 23C27 22.7239 27.2239 22.5 27.5 22.5C27.7761 22.5 28 22.7239 28 23Z" stroke="white" stroke-width="2" stroke-linecap="round" stroke-linejoin="round"/>
</svg>
