<svg xmlns="http://www.w3.org/2000/svg" width="106" height="148" viewBox="0 0 106 148" fill="none">
<path d="M85.7261 11.8011C64.6941 25.1654 47.0977 43.286 34.3564 64.7011C21.615 86.1162 14.0854 110.226 12.375 135.086L28.5353 136.198C30.0715 113.871 36.8339 92.217 48.2772 72.9836C59.7205 53.7502 75.5243 37.4757 94.4136 25.4729L85.7261 11.8011Z" stroke="#ef6b1f" stroke-width="23" stroke-linejoin="round" fill="#ff0000"/>
<path d="M85.7261 11.8011C64.6941 25.1654 47.0977 43.286 34.3564 64.7011C21.615 86.1162 14.0854 110.226 12.375 135.086L28.5353 136.198C30.0715 113.871 36.8339 92.217 48.2772 72.9836C59.7205 53.7502 75.5243 37.4757 94.4136 25.4729L85.7261 11.8011Z" stroke="#ef6b1f" stroke-width="23" stroke-linejoin="round" fill="#ff0000"/>
</svg>