<svg width="259" height="259" viewBox="0 0 259 259" fill="none" xmlns="http://www.w3.org/2000/svg">
<circle cx="120.5" cy="121.5" r="105.5" fill="#D9D9D9"/>
<path d="M118.311 131.01L110.596 162.288C120.12 164.68 149.494 174.219 153.835 156.575C158.373 138.173 127.835 133.414 118.311 131.01ZM128.835 88.3246L121.84 116.692C129.771 118.692 154.219 126.846 158.181 110.797C162.307 94.0551 136.766 90.3235 128.835 88.3246H128.835ZM129.5 0C103.887 0 78.8499 7.59504 57.5537 21.8247C36.2575 36.0543 19.6592 56.2795 9.85766 79.9425C0.0561103 103.606 -2.50842 129.644 2.48836 154.764C7.48515 179.885 19.8188 202.959 37.9297 221.07C56.0406 239.181 79.1153 251.515 104.236 256.512C129.356 261.508 155.395 258.944 179.058 249.142C202.721 239.341 222.946 222.742 237.175 201.446C251.405 180.15 259 155.113 259 129.5C259 112.494 255.65 95.6541 249.142 79.9425C242.634 64.2308 233.096 49.9549 221.07 37.9297C209.045 25.9045 194.769 16.3656 179.058 9.8576C163.346 3.34962 146.506 0 129.5 0V0ZM185.936 111.051C185.664 116.02 183.758 120.759 180.513 124.532C177.269 128.305 172.869 130.9 167.997 131.914C171.199 133.217 174.096 135.17 176.506 137.648C178.916 140.127 180.786 143.078 181.999 146.316C183.212 149.553 183.741 153.006 183.552 156.458C183.364 159.91 182.463 163.286 180.906 166.372C173.324 188.285 155.309 190.135 131.352 185.55L125.538 209.115L111.489 205.574L117.228 182.325C113.586 181.41 109.865 180.439 106.031 179.387L100.273 202.744L86.2403 199.203L92.0549 175.594C88.7731 174.744 85.44 173.842 82.0388 172.98L63.7568 168.371L70.7313 152.106C70.7313 152.106 81.0825 154.891 80.9426 154.685C81.5868 154.89 82.2655 154.966 82.9392 154.907C83.6129 154.848 84.2682 154.656 84.8671 154.342C85.4661 154.029 85.9967 153.599 86.4283 153.078C86.8599 152.558 87.1838 151.956 87.3812 151.31L103.147 87.3651C103.349 85.406 102.778 83.4453 101.555 81.9015C100.332 80.3576 98.554 79.3528 96.6006 79.1014C96.8207 78.952 86.396 76.5358 86.396 76.5358L90.1337 61.3599L109.508 66.2526L109.492 66.326C112.405 67.0579 115.406 67.7543 118.463 68.4586L124.221 45.1243L138.262 48.6652L132.621 71.542C136.39 72.4121 140.184 73.2903 143.877 74.2214L149.479 51.4941L163.528 55.0352L157.774 78.3774C175.511 84.5568 188.484 93.8203 185.936 111.051Z" fill="url(#paint0_linear_1048_502)"/>
<defs>
<linearGradient id="paint0_linear_1048_502" x1="56.5" y1="35.5" x2="193" y2="222" gradientUnits="userSpaceOnUse">
<stop stop-color="#00AF07"/>
<stop offset="1" stop-color="#ED721A"/>
</linearGradient>
</defs>
</svg>
