<svg width="94" height="58" viewBox="0 0 94 58" fill="none" xmlns="http://www.w3.org/2000/svg">
<circle cx="10.4811" cy="29.1142" r="10.4811" fill="#BE8989"/>
<circle cx="64.9982" cy="28.9982" r="28.9982" fill="url(#paint0_radial_0_1)"/>
<g style="mix-blend-mode:overlay">
<path fill-rule="evenodd" clip-rule="evenodd" d="M62.6185 16.4704L62.6411 17.9422C62.6437 18.1278 62.7452 18.2987 62.9073 18.3889C63.0695 18.4799 63.2681 18.4765 63.4277 18.3811L71.2046 13.7368C71.3642 13.6414 71.4605 13.4679 71.4578 13.2823C71.4552 13.0967 71.3529 12.9259 71.1907 12.8357L63.2803 8.42381C63.1181 8.33275 62.9203 8.33622 62.7608 8.43162C62.6003 8.52702 62.5041 8.70047 62.5067 8.88607L62.5344 10.7568C57.3429 11.4281 52.6665 14.2615 49.6466 18.5831C49.4819 18.8182 49.5391 19.1434 49.775 19.3073C50.01 19.4721 50.3344 19.414 50.4992 19.1789C53.4384 14.9744 58.0367 12.2615 63.1155 11.7368C63.3835 11.7091 63.5864 11.481 63.5821 11.2112L63.5613 9.77157L69.8976 13.3057L63.6688 17.0255L63.6515 15.8555C63.6497 15.7072 63.5838 15.5659 63.4711 15.4696C63.3583 15.3725 63.2092 15.3282 63.0617 15.3482C58.3819 15.9778 54.3586 18.9005 52.2996 23.1676C52.1748 23.426 52.2832 23.7374 52.5425 23.8623C52.6153 23.8969 52.6925 23.9143 52.768 23.9143C52.9614 23.9143 53.147 23.8059 53.2372 23.6194C55.0567 19.845 58.5354 17.2068 62.6185 16.4704ZM76.6615 34.8984C74.8411 38.6719 71.3624 41.3102 67.2793 42.0474L67.2567 40.5747C67.2541 40.3891 67.1527 40.2192 66.9905 40.1281C66.8283 40.037 66.6297 40.0405 66.4701 40.1359L58.6932 44.7802C58.5336 44.8756 58.4374 45.049 58.44 45.2346C58.4426 45.4202 58.5449 45.5911 58.7071 45.6813L66.6176 50.094C66.6965 50.1382 66.7832 50.1599 66.8708 50.1599C66.9627 50.1599 67.0555 50.1356 67.1371 50.0862C67.2975 49.9908 67.3938 49.8173 67.3912 49.6317L67.3634 47.761C72.555 47.0897 77.2313 44.2563 80.2512 39.9347C80.416 39.6988 80.3587 39.3744 80.1228 39.2105C79.8878 39.0466 79.5634 39.1038 79.3987 39.3389C76.4595 43.5434 71.8611 46.2563 66.7823 46.781C66.5144 46.8087 66.3114 47.0368 66.3158 47.3066L66.3374 48.7462L60.0011 45.2121L66.2299 41.4923L66.2472 42.6623C66.249 42.8106 66.3149 42.952 66.4276 43.0482C66.5404 43.1454 66.6887 43.1896 66.837 43.1696C71.5168 42.54 75.5401 39.6173 77.5991 35.3502C77.7239 35.0918 77.6155 34.7804 77.3562 34.6556C77.0978 34.5315 76.7864 34.6399 76.6615 34.8984ZM71.0598 25.1354V33.7623H72.7484V25.1354H71.0598ZM68.6635 24.223C68.6635 24.818 68.2775 25.3262 67.7346 25.5292V25.792C67.7346 26.079 67.5013 26.3123 67.2143 26.3123C66.9263 26.3123 66.6939 26.079 66.6939 25.792V25.5292C66.151 25.3262 65.7642 24.818 65.7642 24.223C65.7642 23.9351 65.9966 23.7027 66.2845 23.7027C66.5716 23.7027 66.8049 23.936 66.8049 24.223C66.8049 24.4182 66.9922 24.583 67.2143 24.583C67.4354 24.583 67.6227 24.4182 67.6227 24.223C67.6227 24.0054 67.242 23.8787 67.0781 23.8345C66.2429 23.6081 65.7642 23.1008 65.7642 22.4417C65.7642 21.8458 66.151 21.3376 66.6939 21.1355V20.8727C66.6939 20.5848 66.9263 20.3524 67.2143 20.3524C67.5013 20.3524 67.7346 20.5848 67.7346 20.8727V21.1355C68.2775 21.3385 68.6635 21.8458 68.6635 22.4417C68.6635 22.7287 68.431 22.962 68.1431 22.962C67.856 22.962 67.6227 22.7287 67.6227 22.4417C67.6227 22.2465 67.4354 22.0809 67.2143 22.0809C66.9922 22.0809 66.8049 22.2456 66.8049 22.4417C66.8049 22.6585 67.1865 22.7851 67.3504 22.8302C68.1847 23.0566 68.6635 23.5639 68.6635 24.223ZM70.5888 17.5459C70.3304 17.421 70.2211 17.1096 70.346 16.8512C70.4709 16.5927 70.7822 16.4834 71.0416 16.6092C75.3077 18.6673 78.2313 22.6906 78.861 27.3713C78.88 27.5187 78.8358 27.6679 78.7387 27.7806C78.6424 27.8934 78.501 27.9584 78.3527 27.961L77.1819 27.9784L80.9025 34.2072L84.4367 27.8708L82.997 27.8916C82.9944 27.8916 82.9918 27.8916 82.9892 27.8916C82.7229 27.8916 82.4992 27.6904 82.4714 27.425C81.9467 22.3463 79.2339 17.7479 75.0293 14.8087C74.7934 14.6439 74.7362 14.3196 74.901 14.0837C75.0657 13.8478 75.3901 13.7905 75.6251 13.9553C79.9468 16.9761 82.7802 21.6524 83.4515 26.8431L85.3222 26.8153C85.5087 26.8153 85.6812 26.9099 85.7766 27.0686C85.872 27.2282 85.8746 27.4268 85.7844 27.589L81.3717 35.4994C81.2815 35.6616 81.1115 35.7639 80.9251 35.7657C80.9225 35.7657 80.9199 35.7657 80.9173 35.7657C80.7343 35.7657 80.5652 35.6694 80.4706 35.5124L75.8263 27.7355C75.7309 27.5759 75.7283 27.3773 75.8185 27.2152C75.9096 27.053 76.0796 26.9506 76.266 26.948L77.7378 26.9264C77.0006 22.8458 74.3624 19.3663 70.5888 17.5459ZM66.3695 28.2281V33.7614H68.0581V28.2281H66.3695ZM61.6793 27.2906V33.7614H63.3679V27.2906H61.6793ZM56.9899 29.5265V33.7614H58.6785V29.5265H56.9899ZM54.0715 30.7797C54.1669 30.9393 54.1695 31.1379 54.0793 31.3C53.9882 31.4622 53.8182 31.5646 53.6318 31.5663L52.16 31.588C52.8972 35.6711 55.5355 39.1507 59.309 40.9711C59.5674 41.096 59.6759 41.4073 59.551 41.6658C59.4261 41.9242 59.1156 42.0326 58.8563 41.9086C54.5901 39.8497 51.6665 35.8264 51.0369 31.1465C51.0178 30.9991 51.062 30.8499 51.1592 30.7372C51.2554 30.6244 51.3968 30.5585 51.5451 30.5559L52.7159 30.5386L48.9953 24.3098L45.4611 30.6453L46.9008 30.6236H46.9086C47.1749 30.6236 47.3986 30.8248 47.4264 31.091C47.9511 36.1698 50.664 40.7681 54.8685 43.7065C55.1044 43.8713 55.1617 44.1956 54.9969 44.4307C54.8954 44.5755 54.7341 44.6536 54.5702 44.6536C54.467 44.6536 54.3629 44.6232 54.2727 44.559C49.951 41.5383 47.1176 36.8619 46.4464 31.6704L44.5756 31.6981C44.3892 31.7016 44.2166 31.6036 44.1212 31.4449C44.0258 31.2853 44.0232 31.0867 44.1134 30.9245L48.5261 23.0141C48.6163 22.8519 48.7863 22.7495 48.9728 22.7469C49.161 22.7435 49.3318 22.8415 49.4272 23.0002L54.0715 30.7797Z" fill="white"/>
</g>
<defs>
<radialGradient id="paint0_radial_0_1" cx="0" cy="0" r="1" gradientUnits="userSpaceOnUse" gradientTransform="translate(70.5979 25.9984) rotate(99.9262) scale(32.4843)">
<stop offset="0.760417" stop-color="#6F454F"/>
<stop offset="1" stop-color="#BE8989"/>
</radialGradient>
</defs>
</svg>
