<svg width="94" height="58" viewBox="0 0 94 58" fill="none" xmlns="http://www.w3.org/2000/svg">
<circle cx="10.4811" cy="29.3551" r="10.4811" fill="#EF6B1F"/>
<circle cx="64.9982" cy="28.9982" r="28.9982" fill="url(#paint0_radial_0_1)"/>
<g style="mix-blend-mode:overlay" clip-path="url(#clip0_0_1)">
<path d="M56.4424 36.8236C56.7072 36.8236 56.9218 36.609 56.9218 36.3442C56.9218 36.0794 56.7072 35.8647 56.4424 35.8647C55.3596 35.8647 54.5792 36.0737 53.9865 36.5222C53.5143 36.8796 53.1862 37.384 53.0039 38.0283H52.5006C52.2357 38.0283 52.0211 38.2429 52.0211 38.5077C52.0211 38.7725 52.2357 38.9872 52.5006 38.9872H52.847C52.8386 39.1169 52.8334 39.2495 52.8334 39.387C52.8334 39.5245 52.8386 39.6572 52.847 39.7869H52.5006C52.2357 39.7869 52.0211 40.0015 52.0211 40.2663C52.0211 40.5311 52.2357 40.7458 52.5006 40.7458H53.0039C53.1862 41.3899 53.5143 41.8943 53.9865 42.2518C54.5792 42.7003 55.3596 42.9093 56.4424 42.9093C56.7072 42.9093 56.9218 42.6947 56.9218 42.4298C56.9218 42.165 56.7072 41.9504 56.4424 41.9504C55.1262 41.9504 54.3555 41.5866 54.0106 40.7457H55.7035C55.9683 40.7457 56.1829 40.5311 56.1829 40.2662C56.1829 40.0014 55.9683 39.7868 55.7035 39.7868H53.8066C53.7973 39.6595 53.7922 39.5268 53.7922 39.3869C53.7922 39.2471 53.7973 39.1144 53.8066 38.9871H55.7036C55.9684 38.9871 56.183 38.7725 56.183 38.5077C56.183 38.2428 55.9684 38.0282 55.7036 38.0282H54.0107C54.3555 37.1874 55.1262 36.8236 56.4424 36.8236Z" fill="white"/>
<path d="M72.6728 20.2069H73.5706L73.5774 20.2649C73.6474 20.8913 73.6107 21.1249 73.1101 21.7971L72.6071 22.4295C72.3562 22.7247 72.5908 23.2166 72.9781 23.2074L76.9109 23.2422H76.9152C77.178 23.2422 77.3922 23.0303 77.3946 22.767C77.3969 22.5023 77.1842 22.2857 76.9194 22.2834L73.9616 22.2572C74.4939 21.5161 74.6218 21.0453 74.5351 20.2069H75.4349C75.6997 20.2069 75.9143 19.9923 75.9143 19.7275C75.9143 19.4627 75.6997 19.248 75.4349 19.248H74.3026C74.1107 18.9616 73.7767 18.3594 73.7789 17.8634C73.7789 17.8628 73.7788 17.8622 73.7788 17.8615C73.7788 17.8609 73.7789 17.8602 73.7789 17.8596C73.7777 17.5379 73.918 17.3019 74.2076 17.1384C74.646 16.8911 75.3273 16.8872 75.7262 17.1298C76.0382 17.3194 76.2741 17.586 76.3422 17.8255C76.4144 18.0802 76.6795 18.2282 76.9343 18.1558C77.1889 18.0835 77.3368 17.8184 77.2646 17.5636C77.1293 17.0868 76.7501 16.63 76.2244 16.3105C75.5268 15.8861 74.4802 15.8834 73.7362 16.3034C73.1452 16.6372 72.8203 17.1881 72.8202 17.8555C72.8202 17.8568 72.82 17.858 72.82 17.8593C72.82 17.8599 72.8201 17.8604 72.8201 17.861C72.8201 17.8617 72.82 17.8623 72.82 17.8631C72.82 17.8651 72.8203 17.8669 72.8204 17.8689C72.8206 18.371 73.0044 18.8677 73.1949 19.248H72.6729C72.408 19.248 72.1934 19.4626 72.1934 19.7274C72.1934 19.9922 72.408 20.2069 72.6728 20.2069Z" fill="white"/>
<path d="M78.1367 33.8988C78.6735 32.4021 78.9461 30.8319 78.9461 29.2244C78.9461 27.883 78.7539 26.559 78.3755 25.2826C80.1535 24.1209 81.331 22.1132 81.331 19.8354C81.331 16.2498 78.4139 13.3328 74.8283 13.3328C72.6355 13.3328 70.6929 14.424 69.5145 16.0917C68.0928 15.6128 66.6069 15.3696 65.0914 15.3696C63.5227 15.3696 61.9866 15.6303 60.5189 16.1437C59.3443 14.4467 57.3844 13.3328 55.1689 13.3328C51.5833 13.3328 48.6663 16.2498 48.6663 19.8354C48.6663 22.1793 49.913 24.2375 51.7781 25.3819C51.4191 26.6275 51.2367 27.9181 51.2367 29.2244C51.2367 30.7984 51.4991 32.3387 52.0154 33.8098C50.0196 34.9213 48.6663 37.0529 48.6663 39.4948C48.6663 43.0804 51.5833 45.9975 55.1689 45.9975C57.6907 45.9975 59.8818 44.5545 60.96 42.4508C62.294 42.8674 63.6817 43.0791 65.0914 43.0791C66.4442 43.0791 67.7781 42.8839 69.0631 42.4998C70.15 44.5767 72.3262 45.9975 74.8283 45.9975C78.4139 45.9975 81.331 43.0804 81.331 39.4948C81.331 37.1166 80.0473 35.0327 78.1367 33.8988ZM74.8283 14.2916C77.8852 14.2916 80.3721 16.7785 80.3721 19.8353C80.3721 22.8922 77.8852 25.3791 74.8283 25.3791C71.7715 25.3791 69.2845 22.8922 69.2845 19.8353C69.2845 16.7786 71.7715 14.2916 74.8283 14.2916ZM75.8631 26.2554C76.4424 26.1624 76.9965 25.9928 77.5144 25.7569C77.8281 26.8823 77.9872 28.0461 77.9872 29.2244C77.9872 30.683 77.7462 32.1083 77.2716 33.469C76.7432 33.254 76.1805 33.1066 75.594 33.0375C76.0378 31.818 76.2631 30.5386 76.2631 29.2244C76.2631 28.2153 76.1284 27.2193 75.8631 26.2554ZM65.0914 16.3285C66.4319 16.3285 67.7474 16.5322 69.0098 16.9347C68.7544 17.4447 68.5643 17.9927 68.4501 18.5677C67.3666 18.2262 66.2396 18.0526 65.0914 18.0526C63.8792 18.0526 62.6935 18.2449 61.5579 18.6237C61.449 18.0481 61.2641 17.4991 61.0139 16.9876C62.3256 16.5503 63.6945 16.3285 65.0914 16.3285ZM49.6251 19.8354C49.6251 16.7786 52.112 14.2917 55.1689 14.2917C58.2258 14.2917 60.7127 16.7786 60.7127 19.8354C60.7127 22.8923 58.2258 25.3792 55.1689 25.3792C52.1121 25.3792 49.6251 22.8922 49.6251 19.8354ZM54.5821 33.0189C53.9919 33.0719 53.4242 33.2041 52.8897 33.4048C52.4294 32.0623 52.1955 30.6585 52.1955 29.2243C52.1955 28.0716 52.3479 26.9322 52.6482 25.8294C53.1717 26.0504 53.7301 26.2046 54.3124 26.2815C54.0519 27.2374 53.9196 28.2245 53.9196 29.2243C53.9196 30.5319 54.1428 31.805 54.5821 33.0189ZM55.1689 45.0386C52.1121 45.0386 49.6252 42.5517 49.6252 39.4949C49.6252 36.438 52.1121 33.9511 55.1689 33.9511C58.2258 33.9511 60.7127 36.438 60.7127 39.4949C60.7127 42.5516 58.2258 45.0386 55.1689 45.0386ZM65.0914 42.1202C63.81 42.1202 62.5486 41.9328 61.3342 41.5632C61.5159 41.023 61.6283 40.4513 61.6612 39.8587C62.7656 40.2152 63.9162 40.3961 65.0913 40.3961C66.2005 40.3961 67.2901 40.2342 68.3396 39.9154C68.3775 40.5062 68.4945 41.0757 68.6804 41.6136C67.5179 41.9499 66.313 42.1202 65.0914 42.1202ZM68.3528 38.9045C67.3045 39.2578 66.209 39.4373 65.0914 39.4373C63.9037 39.4373 62.7438 39.2355 61.6386 38.8383C61.3226 35.702 58.7688 33.2166 55.6028 33.007C55.1223 31.8041 54.8785 30.5332 54.8785 29.2244C54.8785 28.241 55.0182 27.2713 55.2933 26.3365C58.8216 26.2698 61.6715 23.3793 61.6715 19.8354C61.6715 19.7567 61.6696 19.6785 61.6668 19.6004C62.7632 19.2099 63.9134 19.0115 65.0913 19.0115C66.2017 19.0115 67.2903 19.1888 68.3327 19.5378C68.3282 19.6365 68.3256 19.7356 68.3256 19.8354C68.3256 23.421 71.2427 26.3381 74.8283 26.3381C74.8488 26.3381 74.8691 26.3375 74.8896 26.3373C75.1646 27.2718 75.3042 28.2412 75.3042 29.2245C75.3042 30.5297 75.0616 31.7972 74.5836 32.9973C71.3083 33.1191 68.6448 35.6747 68.3528 38.9045ZM74.8283 45.0386C71.7715 45.0386 69.2845 42.5517 69.2845 39.4949C69.2845 36.438 71.7715 33.9511 74.8283 33.9511C77.8852 33.9511 80.3721 36.438 80.3721 39.4949C80.3722 42.5516 77.8852 45.0386 74.8283 45.0386Z" fill="white"/>
<path d="M77.0679 36.0141C76.847 35.8679 76.5496 35.9285 76.4035 36.1493L74.839 38.5131L73.2592 36.1331C73.1127 35.9124 72.8151 35.8524 72.5946 35.9987C72.374 36.1452 72.3139 36.4427 72.4602 36.6633L74.1309 39.18H72.8638C72.5989 39.18 72.3843 39.3946 72.3843 39.6594C72.3843 39.9243 72.5989 40.1389 72.8638 40.1389H74.3581L74.3565 40.812H72.8637C72.5989 40.812 72.3843 41.0266 72.3843 41.2914C72.3843 41.5562 72.5989 41.7709 72.8637 41.7709H74.3543L74.3524 42.5956C74.3518 42.8604 74.566 43.0755 74.8307 43.0761H74.8319C75.0961 43.0761 75.3107 42.8622 75.3113 42.5978L75.3132 41.7709H76.7992C77.064 41.7709 77.2787 41.5562 77.2787 41.2914C77.2787 41.0266 77.064 40.812 76.7992 40.812H75.3154L75.3169 40.1389H76.7992C77.064 40.1389 77.2786 39.9243 77.2786 39.6594C77.2786 39.3946 77.064 39.18 76.7992 39.18H75.5474L77.203 36.6785C77.3492 36.4577 77.2887 36.1602 77.0679 36.0141Z" fill="white"/>
<path d="M55.6135 23.3738V22.9911C56.4538 22.787 56.9928 22.0733 57.1111 21.3696C57.2643 20.4583 56.7882 19.6662 55.8983 19.3517C55.8046 19.3186 55.7091 19.2841 55.6135 19.2485V17.5867C55.8161 17.656 55.9346 17.7561 55.9439 17.7642C56.0302 17.8478 56.1477 17.8995 56.2775 17.8995C56.5424 17.8995 56.7573 17.6847 56.7573 17.4197C56.7573 17.2737 56.692 17.143 56.5892 17.0551C56.5669 17.0345 56.206 16.7095 55.6136 16.5981V16.2968C55.6136 16.032 55.399 15.8174 55.1341 15.8174C54.8693 15.8174 54.6547 16.032 54.6547 16.2968V16.6318C54.6175 16.6411 54.5799 16.6515 54.5419 16.6629C53.9521 16.8406 53.5115 17.3443 53.3922 17.9777C53.2828 18.558 53.4707 19.1191 53.8825 19.4421C54.082 19.5985 54.3261 19.7419 54.6547 19.8915V22.0722C54.4081 22.0417 54.2278 21.9638 53.9418 21.7767C53.7203 21.6318 53.4231 21.6938 53.2781 21.9155C53.1332 22.137 53.1953 22.4342 53.4169 22.5791C53.9007 22.8956 54.2399 23.0029 54.6547 23.0358V23.3737C54.6547 23.6385 54.8693 23.8532 55.1341 23.8532C55.3989 23.8532 55.6135 23.6386 55.6135 23.3738ZM55.6135 20.2689C56.2313 20.5075 56.1928 21.0481 56.1655 21.2106C56.1162 21.5039 55.9289 21.8133 55.6135 21.9754V20.2689ZM54.6547 18.8113C54.589 18.771 54.528 18.7299 54.4742 18.6877C54.3472 18.5879 54.2923 18.379 54.3344 18.1553C54.3673 17.9812 54.468 17.7781 54.6547 17.6572V18.8113Z" fill="white"/>
<path d="M64.9996 23.4772C61.5877 23.4772 58.8118 26.2531 58.8118 29.665C58.8118 33.077 61.5877 35.8528 64.9996 35.8528C68.4115 35.8528 71.1874 33.077 71.1874 29.665C71.1874 26.2531 68.4115 23.4772 64.9996 23.4772ZM69.652 27.2829H67.8614C67.7251 26.6021 67.5303 25.9737 67.2813 25.4293C67.1798 25.2073 67.0709 25.0032 66.9555 24.8171C68.1222 25.2894 69.0803 26.1708 69.652 27.2829ZM67.1304 29.665C67.1304 30.1661 67.1003 30.6419 67.0462 31.0884H62.9529C62.8989 30.6419 62.8687 30.1661 62.8687 29.665C62.8687 29.164 62.8988 28.6881 62.9529 28.2417H67.0462C67.1003 28.6881 67.1304 29.164 67.1304 29.665ZM64.9996 24.4361C65.7197 24.4361 66.4983 25.5328 66.8844 27.2828H63.1149C63.5008 25.5328 64.2795 24.4361 64.9996 24.4361ZM63.0437 24.817C62.9284 25.0032 62.8194 25.2072 62.7179 25.4292C62.469 25.9736 62.2741 26.6019 62.1379 27.2828H60.3472C60.9189 26.1708 61.877 25.2894 63.0437 24.817ZM59.7706 29.665C59.7706 29.1716 59.8408 28.6945 59.9692 28.2417H61.9888C61.937 28.7028 61.9099 29.1797 61.9099 29.665C61.9099 30.1503 61.9369 30.6272 61.9888 31.0884H59.9692C59.8408 30.6355 59.7706 30.1584 59.7706 29.665ZM60.3472 32.0472H62.1378C62.2741 32.728 62.4689 33.3565 62.7178 33.9008C62.8193 34.1229 62.9283 34.327 63.0437 34.5131C61.877 34.0406 60.9189 33.1593 60.3472 32.0472ZM64.9996 34.894C64.2795 34.894 63.5008 33.7972 63.1148 32.0472H66.8843C66.4983 33.7972 65.7197 34.894 64.9996 34.894ZM66.9551 34.5132C67.0705 34.327 67.1797 34.123 67.2813 33.9008C67.5302 33.3564 67.725 32.728 67.8613 32.0472H69.6519C69.0802 33.1594 68.122 34.0408 66.9551 34.5132ZM68.0104 31.0884C68.0622 30.6272 68.0892 30.1503 68.0892 29.665C68.0892 29.1797 68.0622 28.7028 68.0104 28.2417H70.03C70.1584 28.6946 70.2286 29.1716 70.2286 29.665C70.2286 30.1584 70.1584 30.6355 70.03 31.0884H68.0104Z" fill="white"/>
</g>
<defs>
<radialGradient id="paint0_radial_0_1" cx="0" cy="0" r="1" gradientUnits="userSpaceOnUse" gradientTransform="translate(70.5979 25.9984) rotate(99.9262) scale(32.4843)">
<stop offset="0.760417" stop-color="#ED721A"/>
<stop offset="1" stop-color="#FFD0AE"/>
</radialGradient>
<clipPath id="clip0_0_1">
<rect width="32.6647" height="32.6647" fill="white" transform="translate(48.6663 13.3328)"/>
</clipPath>
</defs>
</svg>
