<svg width="94" height="58" viewBox="0 0 94 58" fill="none" xmlns="http://www.w3.org/2000/svg">
<circle cx="10.4811" cy="29.3551" r="10.4811" fill="#32B537"/>
<circle cx="65" cy="29" r="29" fill="url(#paint0_radial_0_1)"/>
<g style="mix-blend-mode:overlay" clip-path="url(#clip0_0_1)">
<path d="M79.8797 12.0107C79.414 11.5373 78.7917 11.2735 78.1276 11.268L78.1068 11.2679C76.7473 11.2679 75.6321 12.3741 75.6209 13.7338C75.6155 14.3979 75.8688 15.0244 76.3346 15.4978C76.8004 15.9713 77.4226 16.235 78.0867 16.2405L78.1076 16.2406C79.467 16.2406 80.5823 15.1344 80.5935 13.7748C80.5989 13.1107 80.3454 12.4842 79.8797 12.0107ZM78.1075 15.3221L78.0943 15.322C77.6755 15.3185 77.2832 15.1522 76.9896 14.8537C76.6959 14.5552 76.536 14.1601 76.5395 13.7414C76.5465 12.8841 77.2496 12.1866 78.1068 12.1866L78.12 12.1867C78.5387 12.1901 78.9311 12.3565 79.2247 12.6549C79.5184 12.9535 79.6782 13.3485 79.6748 13.7673C79.6677 14.6246 78.9647 15.3221 78.1075 15.3221Z" fill="white"/>
<path d="M51.1004 24.7817L51.0796 24.7816C49.72 24.7816 48.6048 25.8878 48.5937 27.2475C48.5824 28.6184 49.6885 29.7429 51.0594 29.7543H51.0802C52.4397 29.7543 53.555 28.6481 53.5662 27.2885C53.5774 25.9176 52.4713 24.793 51.1004 24.7817ZM51.0802 28.8357L51.0669 28.8356C50.2025 28.8285 49.505 28.1194 49.5121 27.255C49.5192 26.3976 50.2223 25.7002 51.0795 25.7002H51.0927C51.9571 25.7073 52.6546 26.4164 52.6475 27.2808C52.6405 28.1382 51.9374 28.8357 51.0802 28.8357Z" fill="white"/>
<path d="M60.4558 15.4253L60.4349 15.4252C59.0753 15.4252 57.9601 16.5314 57.949 17.8911C57.9377 19.262 59.0438 20.3866 60.4147 20.3978L60.4356 20.3979C61.7951 20.3979 62.9103 19.2917 62.9215 17.9321C62.9328 16.5611 61.8267 15.4365 60.4558 15.4253ZM60.4355 19.4794L60.4223 19.4793C59.5578 19.4722 58.8603 18.7631 58.8674 17.8987C58.8746 17.0414 59.5776 16.3439 60.4348 16.3439L60.448 16.3439C61.3125 16.3511 62.01 17.0602 62.0029 17.9245C61.9959 18.7819 61.2928 19.4794 60.4355 19.4794Z" fill="white"/>
<path d="M67.2131 22.1822L67.1922 22.1821C65.8327 22.1821 64.7175 23.2883 64.7063 24.6479C64.695 26.0188 65.8012 27.1434 67.1722 27.1547L67.1929 27.1548C68.5524 27.1548 69.6676 26.0486 69.6788 24.6889C69.6901 23.3179 68.5839 22.1934 67.2131 22.1822ZM67.1928 26.2362L67.1796 26.2361C66.3152 26.229 65.6177 25.5199 65.6248 24.6555C65.6318 23.7982 66.3349 23.1007 67.192 23.1007L67.2053 23.1008C68.0697 23.1079 68.7671 23.817 68.76 24.6814C68.7531 25.5387 68.05 26.2362 67.1928 26.2362Z" fill="white"/>
<path d="M76.3367 14.8521L68.2997 22.9096L68.9501 23.5583L76.987 15.5008L76.3367 14.8521Z" fill="white"/>
<path d="M62.1937 19.0207L61.5443 19.6702L65.4372 23.5632L66.0867 22.9137L62.1937 19.0207Z" fill="white"/>
<path d="M58.6787 19.02L52.1888 25.5099L52.8383 26.1594L59.3282 19.6695L58.6787 19.02Z" fill="white"/>
<path d="M74.9446 20.7276V43.268H80.5929V20.7276H74.9446ZM75.8632 42.3494L75.8631 21.6461H79.6744V42.3494H75.8632Z" fill="white"/>
<path d="M66.1612 30.1873V43.2682H71.8095V30.1873H66.1612ZM70.8911 42.3495H67.0798V31.1059H70.8911V42.3495Z" fill="white"/>
<path d="M57.3773 29.5114V43.268H63.0257V29.5114H57.3773ZM62.1072 42.3493H58.2959V30.43H62.1072V42.3493Z" fill="white"/>
<path d="M48.5936 32.8898V43.268H54.2419L54.242 32.8898H48.5936ZM53.3234 42.3493H49.5121V33.8083H53.3234V42.3493Z" fill="white"/>
</g>
<defs>
<radialGradient id="paint0_radial_0_1" cx="0" cy="0" r="1" gradientUnits="userSpaceOnUse" gradientTransform="translate(70.6 26) rotate(99.9262) scale(32.4863)">
<stop offset="0.760417" stop-color="#31B536"/>
<stop offset="1" stop-color="#B9FFBC"/>
</radialGradient>
<clipPath id="clip0_0_1">
<rect width="32" height="32" fill="white" transform="translate(48.5936 11.2679)"/>
</clipPath>
</defs>
</svg>
