<svg width="53" height="33" viewBox="0 0 53 33" fill="none" xmlns="http://www.w3.org/2000/svg">
<circle cx="5.86258" cy="16.4197" r="5.86258" fill="#625E8C"/>
<circle cx="36.3568" cy="16.2201" r="16.2201" fill="url(#paint0_radial_0_1)"/>
<g style="mix-blend-mode:overlay" clip-path="url(#clip0_0_1)">
<path d="M31.0273 17.7026V15.0361H31.2021L32.2261 16.1838L33.247 15.0361H33.3969V17.7026" stroke="white" stroke-width="0.83902" stroke-miterlimit="10"/>
<path d="M36.0604 15.0361H34.5801V17.4014H36.0604" stroke="white" stroke-width="0.83902" stroke-miterlimit="10"/>
<path d="M34.5801 16.2188H35.4685" stroke="white" stroke-width="0.83902" stroke-miterlimit="10"/>
<path d="M39.9082 17.699V15.9277C39.9082 15.4374 40.3058 15.0398 40.7961 15.0398C41.2865 15.0398 41.6841 15.4374 41.6841 15.9277V17.699" stroke="white" stroke-width="0.83902" stroke-miterlimit="10"/>
<path d="M39.9082 16.8131H41.6841" stroke="white" stroke-width="0.83902" stroke-miterlimit="10"/>
<path d="M36.6582 15.0361H39.026" stroke="white" stroke-width="0.83902" stroke-miterlimit="10"/>
<path d="M37.8418 15.0361V17.7026" stroke="white" stroke-width="0.83902" stroke-miterlimit="10"/>
<path d="M42.2772 18.8841H26.5508V13.5564H46.1644V18.8841H42.8692" stroke="white" stroke-width="0.83902" stroke-miterlimit="10"/>
<path d="M28.0694 14.7402H27.4783" stroke="white" stroke-width="0.83902" stroke-miterlimit="10"/>
<path d="M29.2533 14.7402H28.6621" stroke="white" stroke-width="0.83902" stroke-miterlimit="10"/>
<path d="M28.2109 18.8839C29.2904 22.0653 32.2498 24.3787 35.7662 24.5017V18.8838" stroke="white" stroke-width="0.83902" stroke-miterlimit="10"/>
<path d="M35.7662 13.5566V7.93872C32.2498 8.06169 29.2904 10.375 28.2109 13.5565" stroke="white" stroke-width="0.83902" stroke-miterlimit="10"/>
<path d="M44.5045 13.5562C43.425 10.3748 40.4656 8.06145 36.9492 7.93848V13.5563" stroke="white" stroke-width="0.83902" stroke-miterlimit="10"/>
<path d="M36.9492 18.884V24.5019C40.4657 24.3789 43.4251 22.0655 44.5045 18.8841" stroke="white" stroke-width="0.83902" stroke-miterlimit="10"/>
<path d="M35.7655 11.4637C34.0594 11.3433 32.496 10.7065 31.2305 9.70874" stroke="white" stroke-width="0.83902" stroke-miterlimit="10"/>
<path d="M41.4842 9.70874C40.2187 10.7065 38.6552 11.3433 36.9492 11.4637" stroke="white" stroke-width="0.83902" stroke-miterlimit="10"/>
<path d="M36.9492 20.9766C38.6554 21.0969 40.219 21.7337 41.4847 22.7316" stroke="white" stroke-width="0.83902" stroke-miterlimit="10"/>
<path d="M31.2305 22.7316C32.4964 21.7335 34.0606 21.0966 35.7673 20.9766" stroke="white" stroke-width="0.83902" stroke-miterlimit="10"/>
<path d="M35.7649 24.4434C33.9439 24.046 32.444 21.8394 31.8711 18.8839" stroke="white" stroke-width="0.83902" stroke-miterlimit="10"/>
<path d="M40.8434 18.8838C40.2705 21.8395 38.7704 24.0463 36.9492 24.4434" stroke="white" stroke-width="0.83902" stroke-miterlimit="10"/>
<path d="M36.9492 7.99683C38.7702 8.39423 40.2701 10.6008 40.843 13.5563" stroke="white" stroke-width="0.83902" stroke-miterlimit="10"/>
<path d="M31.8711 13.5564C32.444 10.6009 33.9439 8.39435 35.7649 7.99695" stroke="white" stroke-width="0.83902" stroke-miterlimit="10"/>
<path d="M43.461 7.63802C43.7879 7.63802 44.0529 7.37299 44.0529 7.04606C44.0529 6.71913 43.7879 6.4541 43.461 6.4541C43.134 6.4541 42.869 6.71913 42.869 7.04606C42.869 7.37299 43.134 7.63802 43.461 7.63802Z" stroke="white" stroke-width="0.83902" stroke-miterlimit="10"/>
<path d="M45.5724 9.70858C45.8994 9.70858 46.1644 9.44355 46.1644 9.11662C46.1644 8.78969 45.8994 8.52466 45.5724 8.52466C45.2455 8.52466 44.9805 8.78969 44.9805 9.11662C44.9805 9.44355 45.2455 9.70858 45.5724 9.70858Z" stroke="white" stroke-width="0.83902" stroke-miterlimit="10"/>
<path d="M43.4607 7.63806V9.1167L42.3633 10.2141" stroke="white" stroke-width="0.83902" stroke-miterlimit="10"/>
<path d="M45.5722 9.7085V10.8924L44.0176 12.447" stroke="white" stroke-width="0.83902" stroke-miterlimit="10"/>
<path d="M29.2541 7.63802C29.581 7.63802 29.846 7.37299 29.846 7.04606C29.846 6.71913 29.581 6.4541 29.2541 6.4541C28.9271 6.4541 28.6621 6.71913 28.6621 7.04606C28.6621 7.37299 28.9271 7.63802 29.2541 7.63802Z" stroke="white" stroke-width="0.83902" stroke-miterlimit="10"/>
<path d="M27.1427 9.70867C27.4697 9.70867 27.7347 9.44364 27.7347 9.11671C27.7347 8.78978 27.4697 8.52475 27.1427 8.52475C26.8158 8.52475 26.5508 8.78978 26.5508 9.11671C26.5508 9.44364 26.8158 9.70867 27.1427 9.70867Z" stroke="white" stroke-width="0.83902" stroke-miterlimit="10"/>
<path d="M29.2539 7.63818V9.11682L30.3513 10.2142" stroke="white" stroke-width="0.83902" stroke-miterlimit="10"/>
<path d="M27.1426 9.7085V10.8924L28.6972 12.447" stroke="white" stroke-width="0.83902" stroke-miterlimit="10"/>
<path d="M43.461 25.9863C43.7879 25.9863 44.0529 25.7212 44.0529 25.3943C44.0529 25.0674 43.7879 24.8023 43.461 24.8023C43.134 24.8023 42.869 25.0674 42.869 25.3943C42.869 25.7212 43.134 25.9863 43.461 25.9863Z" stroke="white" stroke-width="0.83902" stroke-miterlimit="10"/>
<path d="M45.5724 23.9159C45.8994 23.9159 46.1644 23.6508 46.1644 23.3239C46.1644 22.997 45.8994 22.7319 45.5724 22.7319C45.2455 22.7319 44.9805 22.997 44.9805 23.3239C44.9805 23.6508 45.2455 23.9159 45.5724 23.9159Z" stroke="white" stroke-width="0.83902" stroke-miterlimit="10"/>
<path d="M43.4607 24.8023V23.3237L42.3633 22.2263" stroke="white" stroke-width="0.83902" stroke-miterlimit="10"/>
<path d="M45.5722 22.7317V21.5478L44.0176 19.9932" stroke="white" stroke-width="0.83902" stroke-miterlimit="10"/>
<path d="M29.2541 25.9864C29.581 25.9864 29.846 25.7214 29.846 25.3945C29.846 25.0675 29.581 24.8025 29.2541 24.8025C28.9271 24.8025 28.6621 25.0675 28.6621 25.3945C28.6621 25.7214 28.9271 25.9864 29.2541 25.9864Z" stroke="white" stroke-width="0.83902" stroke-miterlimit="10"/>
<path d="M27.1427 23.9156C27.4697 23.9156 27.7347 23.6506 27.7347 23.3237C27.7347 22.9967 27.4697 22.7317 27.1427 22.7317C26.8158 22.7317 26.5508 22.9967 26.5508 23.3237C26.5508 23.6506 26.8158 23.9156 27.1427 23.9156Z" stroke="white" stroke-width="0.83902" stroke-miterlimit="10"/>
<path d="M29.2539 24.8023V23.3237L30.3513 22.2263" stroke="white" stroke-width="0.83902" stroke-miterlimit="10"/>
<path d="M27.1426 22.7317V21.5478L28.6972 19.9932" stroke="white" stroke-width="0.83902" stroke-miterlimit="10"/>
</g>
<defs>
<radialGradient id="paint0_radial_0_1" cx="0" cy="0" r="1" gradientUnits="userSpaceOnUse" gradientTransform="translate(39.489 14.5421) rotate(99.9262) scale(18.17)">
<stop offset="0.760417" stop-color="#46456F"/>
<stop offset="1" stop-color="#9489BE"/>
</radialGradient>
<clipPath id="clip0_0_1">
<rect width="20.2056" height="20.2056" fill="white" transform="translate(26.2539 6.11743)"/>
</clipPath>
</defs>
</svg>
