<svg width="58" height="58" viewBox="0 0 58 58" fill="none" xmlns="http://www.w3.org/2000/svg">
<rect width="58" height="58" rx="5" fill="#31B536"/>
<path d="M24.2952 31.9558C24.4826 32.142 24.736 32.2466 25.0002 32.2466C25.2644 32.2466 25.5179 32.142 25.7052 31.9558L29.2952 28.4158L32.8352 31.9558C33.0226 32.142 33.276 32.2466 33.5402 32.2466C33.8044 32.2466 34.0579 32.142 34.2452 31.9558C34.3389 31.8628 34.4133 31.7522 34.4641 31.6304C34.5149 31.5085 34.541 31.3778 34.541 31.2458C34.541 31.1138 34.5149 30.9831 34.4641 30.8612C34.4133 30.7394 34.3389 30.6288 34.2452 30.5358L30.0052 26.2958C29.9123 26.2021 29.8017 26.1277 29.6798 26.0769C29.5579 26.0261 29.4272 26 29.2952 26C29.1632 26 29.0325 26.0261 28.9106 26.0769C28.7888 26.1277 28.6782 26.2021 28.5852 26.2958L24.2952 30.5358C24.2015 30.6288 24.1271 30.7394 24.0763 30.8612C24.0256 30.9831 23.9994 31.1138 23.9994 31.2458C23.9994 31.3778 24.0256 31.5085 24.0763 31.6304C24.1271 31.7522 24.2015 31.8628 24.2952 31.9558Z" fill="white"/>
</svg>
