<svg width="720" height="1013" viewBox="0 0 720 1013" fill="none" xmlns="http://www.w3.org/2000/svg">
<g style="mix-blend-mode:luminosity" opacity="0.1">
<path d="M478.769 1012.96L94.2436 390.286L-163.565 806.388H77.6659L-50.4948 1012.96H-533L94.2436 0L720 1012.96H478.769Z" fill="#269044"/>
<path d="M478.768 1012.96C350.461 675.206 222.286 337.552 94.2422 0L719.999 1012.96H478.768Z" fill="#1B7D39"/>
<path d="M94.2435 390.286L-163.565 806.388H77.6658L-50.4948 1012.96H-533L94.2435 0V390.286Z" fill="#5DBB64"/>
<path d="M94.243 390.286L-163.565 806.388C-77.6001 537.621 8.33603 268.825 94.243 0V390.286Z" fill="#3FB550"/>
<path d="M94.2435 390.283L-163.565 806.385H77.6658L-50.4948 1012.96H-533L94.2435 390.283Z" fill="#EF6B1F"/>
<path d="M-163.565 806.389H77.6658L-533 1012.96L-163.565 806.389Z" fill="#C65917"/>
<path d="M77.6658 806.389L-50.4948 1012.96H-533L77.6658 806.389Z" fill="#F37D56"/>
</g>
</svg>
